<svg width="118" height="27" viewBox="0 0 118 27" fill="none" xmlns="http://www.w3.org/2000/svg">
<path fill-rule="evenodd" clip-rule="evenodd" d="M108.96 7H106.73V20.7445H108.96V7ZM33.0435 10.694H34.3148V12.7042H33.0435C32.2551 12.7042 31.4597 12.904 30.9464 13.4607C30.4337 14.0167 30.2406 14.8703 30.2406 15.7231C30.2406 16.576 30.4261 17.4288 30.9464 17.9848C31.4674 18.5416 32.2551 18.7413 33.0428 18.7413C33.8313 18.7413 34.6267 18.5416 35.1393 17.9848C35.6527 17.4288 35.8458 16.5752 35.8458 15.7231V7.45971H38.0756V20.7445H35.8458V19.8987H35.4366C35.394 19.9475 35.3495 19.9945 35.3033 20.0397C34.7455 20.5589 33.8903 20.7445 33.0505 20.7445C31.7348 20.7445 30.4191 20.4102 29.5564 19.4837C28.695 18.5557 28.3893 17.1313 28.3893 15.7146C28.3893 14.298 28.7019 12.8813 29.5564 11.9463C30.4191 11.0198 31.7348 10.6925 33.0435 10.6925V10.694ZM66.9872 20.3875H65.716V18.378H66.9872C67.775 18.378 68.5711 18.1775 69.083 17.6215C69.5964 17.0654 69.7895 16.2119 69.7895 15.359C69.7895 14.5062 69.604 13.6534 69.083 13.0966C68.5627 12.5406 67.775 12.3401 66.9872 12.3401C66.1995 12.3401 65.4034 12.5406 64.8908 13.0966C64.3781 13.6534 64.1843 14.5062 64.1843 15.359V23.6147H61.9544V10.3377H64.1843V11.1834H64.5941C64.6354 11.1359 64.6785 11.0901 64.7234 11.046L64.7268 11.0425C65.2846 10.5232 66.1398 10.3377 66.9796 10.3377C68.296 10.3377 69.611 10.6713 70.4737 11.5985C71.3358 12.5264 71.6407 13.9502 71.6407 15.3668C71.6407 16.7835 71.3281 18.2002 70.4737 19.1345C69.6193 20.0695 68.296 20.3875 66.9872 20.3875ZM49.2638 16.3528V15.5453C49.2638 14.0833 48.9442 12.615 48.0453 11.6509C47.1527 10.6862 45.778 10.3455 44.4172 10.3455C43.057 10.3455 41.6885 10.694 40.7897 11.6509C39.8901 12.6072 39.5705 14.0833 39.5705 15.5446C39.5705 17.0059 39.897 18.4743 40.7897 19.439C41.6816 20.4024 43.057 20.7445 44.4172 20.7445C45.778 20.7445 47.1527 20.3953 48.0453 19.439C48.5059 18.9489 48.8109 18.3185 49.004 17.6215H46.8033C46.7379 17.7114 46.6683 17.7982 46.5949 17.8814C46.06 18.4594 45.2348 18.6677 44.4172 18.6677C43.5995 18.6677 42.7743 18.4523 42.2387 17.8814C41.7038 17.3098 41.5107 16.4201 41.5107 15.5446C41.5107 14.6691 41.7038 13.7865 42.2394 13.2085C42.7743 12.6298 43.5995 12.4223 44.4172 12.4223C45.2348 12.4223 46.06 12.6298 46.5956 13.2085C46.9672 13.6087 47.1749 14.1577 47.2645 14.7435H43.3245V16.3528H49.2638ZM60.4602 15.5446V16.3528H54.5209V14.7435H58.4603C58.3707 14.1577 58.163 13.6087 57.7914 13.2085C57.2565 12.6298 56.4305 12.4223 55.6129 12.4223C54.7953 12.4223 53.9701 12.6298 53.4345 13.2085C52.8996 13.7865 52.7058 14.6698 52.7058 15.5446C52.7058 16.4201 52.8996 17.3098 53.4352 17.8814C53.9701 18.4523 54.7953 18.6677 55.6129 18.6677C56.4305 18.6677 57.2558 18.4594 57.7914 17.8814C57.8657 17.7992 57.9324 17.7107 57.9991 17.6215H60.1997C60.0066 18.3192 59.7017 18.9489 59.2411 19.439C58.3485 20.3953 56.9738 20.7445 55.6129 20.7445C54.2521 20.7445 52.8774 20.4031 51.9854 19.439C51.0928 18.4743 50.7656 17.0059 50.7656 15.5446C50.7656 14.0833 51.0852 12.6072 51.9847 11.6509C52.885 10.694 54.2521 10.3455 55.6129 10.3455C56.9738 10.3455 58.3485 10.6862 59.2404 11.6509C60.1407 12.6142 60.4602 14.0833 60.4602 15.5446ZM81.6243 19.9731C80.7324 20.544 79.3577 20.7445 77.9968 20.7445C76.6367 20.7445 75.2759 20.5362 74.3763 19.9724C73.4767 19.4093 73.1572 18.5345 73.1572 17.6732H75.7739C75.7739 18.0075 75.9302 18.3482 76.3463 18.5635C76.7631 18.7789 77.4161 18.8603 78.0566 18.8603C78.6957 18.8603 79.3424 18.7789 79.7654 18.5628C80.1899 18.3482 80.3385 18.0075 80.3385 17.6732C80.3385 17.3403 80.1899 16.9988 79.7661 16.7835C79.3424 16.5682 78.6359 16.4867 77.9968 16.4867C76.7624 16.4867 75.5218 16.2792 74.7111 15.7146C73.9005 15.1515 73.6108 14.2767 73.6108 13.4161C73.6108 12.5555 73.9005 11.6877 74.7111 11.1168C75.5218 10.5452 76.7624 10.3447 77.9968 10.3447C79.2306 10.3447 80.4726 10.553 81.2826 11.1168C82.0932 11.68 82.3829 12.5555 82.3829 13.4161H80.1155C80.1155 13.0825 79.9745 12.7488 79.5952 12.5257C79.216 12.3111 78.629 12.2289 78.0489 12.2289C77.4689 12.2289 76.8819 12.3033 76.5026 12.5264C76.1164 12.741 75.9817 13.0825 75.9817 13.4161C75.9817 13.749 76.1234 14.0833 76.5026 14.3057C76.8812 14.5211 77.4168 14.6033 77.9968 14.6033C79.3577 14.6033 80.7324 14.8101 81.6243 15.3739C82.5239 15.9377 82.8442 16.8132 82.8442 17.6732C82.8442 18.5338 82.517 19.4015 81.6243 19.9731ZM94.0392 15.5446V16.3528H88.0999V14.7435H92.04C91.9504 14.1577 91.742 13.6087 91.3711 13.2085C90.8355 12.6298 90.0102 12.4223 89.1926 12.4223C88.375 12.4223 87.5491 12.6298 87.0142 13.2085C86.4793 13.7865 86.2862 14.6698 86.2862 15.5446C86.2862 16.4201 86.4793 17.3098 87.0142 17.8814C87.5491 18.4523 88.375 18.6677 89.1919 18.6677C90.0102 18.6677 90.8355 18.4594 91.3711 17.8814C91.4447 17.7992 91.5121 17.7107 91.5795 17.6215H93.7794C93.5856 18.3192 93.2814 18.9489 92.8208 19.439C91.9289 20.3953 90.5528 20.7445 89.1919 20.7445C87.8325 20.7445 86.4564 20.4031 85.5644 19.439C84.6725 18.4743 84.346 17.0059 84.346 15.5446C84.346 14.0833 84.6656 12.6072 85.5644 11.6509C86.4647 10.694 87.8325 10.3455 89.1919 10.3455C90.5535 10.3455 91.9289 10.6862 92.8208 11.6509C93.7197 12.6142 94.0392 14.0833 94.0392 15.5446ZM105.235 16.3528V15.5453C105.235 14.0833 104.915 12.615 104.017 11.6509C103.124 10.6862 101.749 10.3455 100.388 10.3455C99.0276 10.3455 97.6598 10.694 96.7609 11.6509C95.8606 12.6072 95.5411 14.0833 95.5411 15.5446C95.5411 17.0059 95.8683 18.4743 96.7609 19.439C97.6528 20.4024 99.0276 20.7445 100.388 20.7445C101.749 20.7445 103.124 20.3953 104.017 19.439C104.477 18.9489 104.782 18.3185 104.975 17.6215H102.775L102.766 17.6328C102.702 17.7178 102.638 17.8028 102.566 17.8807C102.031 18.4594 101.207 18.667 100.388 18.667C99.5708 18.667 98.7455 18.4523 98.21 17.8807C97.6751 17.3098 97.4813 16.4201 97.4813 15.5446C97.4813 14.6691 97.6751 13.7865 98.21 13.2085C98.7455 12.6298 99.5708 12.4223 100.388 12.4223C101.207 12.4223 102.031 12.6298 102.566 13.2085C102.938 13.6087 103.147 14.1577 103.236 14.7435H99.2957V16.3528H105.235ZM116.423 20.7445L112.766 15.2337L116.423 10.8052H113.665L110.008 15.233L113.665 20.7438L116.423 20.7445Z" fill="black"/>
<g clip-path="url(#clip0_14_31)">
<path fill-rule="evenodd" clip-rule="evenodd" d="M26.7164 5.66698C26.4307 5.52748 26.3069 5.7941 26.1404 5.93023C26.0831 5.9741 26.0347 6.03148 25.9863 6.08323C25.5678 6.52985 25.0796 6.82235 24.4417 6.78748C23.5091 6.73573 22.7126 7.02823 22.0083 7.74148C21.8587 6.86173 21.3614 6.33748 20.6054 5.99998C20.2094 5.82448 19.8089 5.6501 19.5311 5.26873C19.3376 4.9976 19.2847 4.69498 19.1879 4.39798C19.1261 4.21798 19.0642 4.0346 18.8583 4.00423C18.6333 3.96935 18.5456 4.15723 18.4578 4.31473C18.1057 4.95823 17.9696 5.66698 17.9831 6.38473C18.0134 8.00023 18.6952 9.28722 20.0508 10.2018C20.2049 10.3065 20.2443 10.4122 20.1959 10.5652C20.1037 10.8802 19.9934 11.1862 19.8967 11.5023C19.8348 11.7037 19.7426 11.7465 19.5266 11.6599C18.7967 11.3462 18.1338 10.8956 17.5736 10.3323C16.6094 9.40085 15.7387 8.3726 14.6519 7.5671C14.4001 7.38104 14.1416 7.2043 13.8768 7.03723C12.7687 5.9606 14.0231 5.07635 14.3133 4.97173C14.6171 4.86148 14.4179 4.48573 13.4369 4.49023C12.4559 4.49473 11.5582 4.8221 10.4141 5.25973C10.2441 5.32488 10.0691 5.37641 9.89094 5.41385C8.82177 5.2124 7.7283 5.17371 6.64757 5.2991C4.52694 5.53535 2.83382 6.53885 1.58844 8.24998C0.0921933 10.3065 -0.259932 12.6442 0.170943 15.081C0.624318 17.6505 1.93607 19.7779 3.95094 21.4406C6.04119 23.1652 8.44757 24.0101 11.1937 23.8481C12.8609 23.7525 14.7183 23.5286 16.8119 21.7556C17.3407 22.0189 17.8942 22.1235 18.8144 22.2022C19.5232 22.2686 20.2049 22.1685 20.7326 22.0582C21.5594 21.8827 21.5021 21.1166 21.2039 20.9771C18.7796 19.8476 19.3117 20.3077 18.8268 19.9354C20.0598 18.4774 21.9161 16.9631 22.6428 12.057C22.6991 11.6666 22.6507 11.4214 22.6428 11.1064C22.6383 10.9151 22.6822 10.8397 22.9016 10.8184C23.5102 10.7552 24.1007 10.5737 24.6397 10.284C26.2102 9.4256 26.8447 8.0171 26.9943 6.32735C27.0168 6.0686 26.9898 5.8031 26.7164 5.66698ZM13.0286 20.8747C10.6784 19.0275 9.53882 18.4189 9.06857 18.4447C8.62757 18.4717 8.70744 18.9746 8.80419 19.3031C8.90544 19.6271 9.03707 19.8498 9.22157 20.1345C9.34982 20.3223 9.43757 20.6025 9.09444 20.8129C8.33732 21.2808 7.02219 20.6553 6.96032 20.625C5.42919 19.7227 4.14782 18.5325 3.24669 16.9046C2.37594 15.3375 1.86969 13.6567 1.78644 11.8624C1.76394 11.4281 1.89107 11.2751 2.32307 11.1964C2.89019 11.0878 3.47127 11.073 4.04319 11.1525C6.44169 11.5035 8.48244 12.5756 10.1947 14.2732C11.1712 15.2407 11.9103 16.3961 12.6719 17.5256C13.4819 18.7248 14.3527 19.8679 15.4619 20.8039C15.8534 21.1324 16.1651 21.3821 16.4643 21.5655C15.5621 21.6667 14.0568 21.6892 13.0286 20.8747ZM14.1536 13.6297C14.1534 13.5738 14.1668 13.5187 14.1926 13.4692C14.2185 13.4197 14.256 13.3772 14.302 13.3454C14.348 13.3136 14.401 13.2935 14.4565 13.2868C14.5119 13.28 14.5682 13.2869 14.6204 13.3069C14.687 13.3307 14.7444 13.3748 14.7848 13.4329C14.8251 13.4909 14.8463 13.5601 14.8454 13.6308C14.8456 13.6765 14.8367 13.7218 14.8191 13.764C14.8016 13.8062 14.7759 13.8445 14.7434 13.8766C14.711 13.9088 14.6724 13.9341 14.6301 13.9512C14.5877 13.9683 14.5424 13.9768 14.4967 13.9762C14.4514 13.9764 14.4064 13.9675 14.3646 13.9501C14.3227 13.9327 14.2848 13.9071 14.2529 13.8748C14.2211 13.8425 14.196 13.8042 14.1791 13.7622C14.1622 13.7201 14.1528 13.6751 14.1536 13.6297ZM17.6523 15.4252C17.4273 15.5164 17.2034 15.5951 16.9886 15.6052C16.6653 15.6165 16.3481 15.5155 16.0908 15.3195C15.7826 15.0607 15.5621 14.9167 15.4698 14.4667C15.438 14.2468 15.4441 14.0231 15.4878 13.8052C15.5666 13.4374 15.4788 13.2011 15.2189 12.9874C15.0086 12.8119 14.7397 12.7635 14.4449 12.7635C14.344 12.7576 14.246 12.7275 14.1592 12.6757C14.0354 12.615 13.9342 12.462 14.0309 12.273C14.0624 12.2122 14.2109 12.0637 14.2469 12.0367C14.6474 11.8095 15.1098 11.8837 15.5362 12.0547C15.9322 12.2167 16.2314 12.5137 16.6623 12.9345C17.1022 13.4419 17.1821 13.5825 17.4329 13.9627C17.6309 14.2608 17.8109 14.5669 17.9336 14.9167C18.0089 15.1361 17.9122 15.315 17.6523 15.4252Z" fill="black"/>
</g>
<defs>
<clipPath id="clip0_14_31">
<rect width="27" height="27" fill="white"/>
</clipPath>
</defs>
</svg>
