<svg width="73" height="28" viewBox="0 0 73 28" fill="none" xmlns="http://www.w3.org/2000/svg">
<path d="M62.6237 20.4993V7.59814H64.7V16.1124L69.0914 11.1577H71.6084L67.6582 15.4038L71.6455 20.4993H69.1649L65.9354 16.1211L64.7 16.1124V20.4993H62.6237Z" fill="#0A0A0A"/>
<path d="M56.3269 20.7161C53.24 20.7161 51.5679 18.5659 51.5679 15.8195C51.5679 13.055 53.24 10.9229 56.3269 10.9229C59.4322 10.9229 61.0859 13.055 61.0859 15.8195C61.0859 18.5659 59.4322 20.7161 56.3269 20.7161ZM53.7361 15.8195C53.7361 17.9516 54.9121 19.0177 56.3269 19.0177C57.7601 19.0177 58.9177 17.9516 58.9177 15.8195C58.9177 13.6874 57.7601 12.6033 56.3269 12.6033C54.9121 12.6033 53.7361 13.6874 53.7361 15.8195Z" fill="#0A0A0A"/>
<path d="M45.7892 20.4993V12.6393L47.5348 11.1577H51.2464V12.8923H47.8655V20.4993H45.7892Z" fill="#0A0A0A"/>
<path d="M37.8501 20.7379C33.8926 20.7379 31.533 17.9155 31.533 14.0668C31.533 10.182 33.9768 7.29102 37.9273 7.29102C41.0143 7.29102 43.2743 8.84495 43.8072 11.7359H41.4369C41.0877 10.0916 39.6913 9.17017 37.9273 9.17017C35.0792 9.17017 33.8298 11.5914 33.8298 14.0668C33.8298 16.5422 35.0792 18.9454 37.9273 18.9454C40.6468 18.9454 41.8411 17.012 41.933 15.4039H37.8354V13.533H44.0277L44.0175 14.5112C44.0175 18.146 42.5093 20.7379 37.8501 20.7379Z" fill="#0A0A0A"/>
<path d="M11.6622 17.5958L20.5965 11.1102C21.0345 10.7923 21.6606 10.9163 21.8693 11.4101C22.9678 14.0147 22.477 17.1448 20.2916 19.2938C18.1061 21.4429 15.0654 21.9142 12.286 20.8408L9.24976 22.2231C13.6046 25.1502 18.8927 24.4263 22.1972 21.1745C24.8184 18.597 25.6301 15.0836 24.8711 11.9153L24.878 11.9221C23.7773 7.26762 25.1486 5.40721 27.9577 1.60294C28.0242 1.51274 28.0907 1.42253 28.1573 1.33008L24.4606 4.96522V4.95394L11.66 17.598" fill="#0A0A0A"/>
<path d="M9.8185 19.1722C6.69287 16.2361 7.23178 11.6922 9.89877 9.0718C11.8709 7.13245 15.102 6.34094 17.9227 7.50457L20.952 6.12897C20.4062 5.7411 19.7068 5.32392 18.9041 5.03076C15.2763 3.56272 10.933 4.29336 7.98395 7.19111C5.14725 9.98061 4.25519 14.2697 5.78705 17.9297C6.93136 20.665 5.05552 22.5999 3.16593 24.5527C2.49631 25.245 1.8244 25.9373 1.2832 26.6702L9.81622 19.1744" fill="#0A0A0A"/>
</svg>
