<svg width="94" height="15" viewBox="0 0 94 15" fill="none" xmlns="http://www.w3.org/2000/svg">
<path fill-rule="evenodd" clip-rule="evenodd" d="M1.6517 13.5244C1.38008 13.5244 1.22076 13.3619 1.22076 13.0919V12.9494C1.22076 12.6794 1.34773 12.5531 1.58395 12.4631L2.10888 12.2837C2.47206 12.1406 2.59841 11.9775 2.59841 11.5994V2.85188C2.59841 2.47375 2.47206 2.31187 2.10888 2.1675L1.58028 1.98812C1.34467 1.89813 1.22076 1.77375 1.22076 1.50188V1.35938C1.22076 1.08875 1.38374 0.926875 1.65536 0.926875H5.22736C5.4996 0.926875 5.66257 1.08938 5.66257 1.35938V1.50188C5.66257 1.77188 5.53561 1.89813 5.3 1.98812L4.77079 2.16625C4.38991 2.30875 4.26295 2.4725 4.26295 2.85063V11.5969C4.26295 11.9744 4.38991 12.1363 4.77079 12.2806L5.29572 12.4606C5.53195 12.5506 5.65891 12.6744 5.65891 12.9463V13.0887C5.65891 13.3594 5.49593 13.5213 5.2237 13.5213L1.6517 13.5244ZM6.74662 13.5363C6.475 13.5363 6.31508 13.3737 6.31508 13.1038V12.9788C6.31508 12.7263 6.44204 12.6 6.69535 12.5281L7.05487 12.4206C7.41378 12.3119 7.5444 12.135 7.5444 11.7362V7.075C7.5444 6.535 7.40035 6.31875 6.71061 6.15687C6.42311 6.08562 6.31202 5.97688 6.31202 5.72875V5.6175C6.31202 5.41937 6.42006 5.275 6.69169 5.185L8.30617 4.55562C8.7371 4.39313 9.013 4.55562 9.013 5.00562V5.40125C9.013 5.58125 9.15705 5.63563 9.30049 5.54438L9.58737 5.38188C10.4584 4.84188 11.4369 4.49937 12.4159 4.49937C13.9028 4.49937 14.7006 5.41813 14.7006 7.01937V11.7381C14.7006 12.1337 14.8276 12.3131 15.2072 12.4219L15.5527 12.5294C15.8066 12.6006 15.933 12.7281 15.933 12.9794V13.105C15.933 13.3756 15.77 13.5375 15.4978 13.5375H13.558C13.2851 13.5375 13.1221 13.375 13.1221 13.105V7.38125C13.1221 6.31875 12.8505 5.77938 11.9258 5.77938C11.001 5.77938 10.0409 6.13562 9.51474 6.46312C9.18879 6.64312 9.09784 6.81938 9.09784 7.165V11.7375C9.09784 12.1337 9.22419 12.3131 9.58737 12.4219L9.94628 12.5294C10.2008 12.6006 10.3272 12.7281 10.3272 12.9794V13.105C10.3272 13.3756 10.1642 13.5375 9.89623 13.5375L6.74662 13.5363ZM20.1166 13.5363H16.9529C16.6801 13.5363 16.5165 13.3737 16.5165 13.1031V12.9769C16.5165 12.7244 16.6435 12.5981 16.898 12.5256L17.2618 12.4175C17.6256 12.3094 17.7526 12.1287 17.7526 11.7319V6.04625C17.7526 5.92 17.6616 5.83 17.5346 5.83H16.8803C16.6075 5.83 16.4439 5.64875 16.4439 5.37875V5.25187C16.4439 4.99937 16.5708 4.855 16.7894 4.74687L16.989 4.65688C17.2801 4.49438 17.3528 4.3675 17.4071 4.04313L17.4986 3.17688C17.7886 1.04688 19.0246 0 21.2251 0C21.988 0 22.7706 0.19875 23.2973 0.415C23.4072 0.469375 23.4975 0.469375 23.6251 0.415L24.534 0.0725C24.9704 -0.10875 25.261 0.0725 25.261 0.523125V11.7319C25.261 12.1287 25.3885 12.3094 25.77 12.4175L26.1338 12.5256C26.3883 12.5981 26.5159 12.7244 26.5159 12.9769V13.1031C26.5159 13.3744 26.334 13.5363 26.0612 13.5363H22.9158C22.6247 13.5363 22.4611 13.3737 22.4611 13.1031V12.9769C22.4611 12.7244 22.5887 12.5981 22.8432 12.5256L23.207 12.4175C23.5885 12.3094 23.7161 12.1287 23.7161 11.7319V2.81563C23.7161 2.49063 23.5885 2.29188 23.2979 2.0575C22.6064 1.51625 21.6072 1.17313 20.6794 1.17313C19.425 1.17313 18.861 1.82313 18.861 2.8875C18.861 4.00625 19.425 4.65625 20.9882 4.65625H21.2977C21.5705 4.65625 21.7341 4.81875 21.7341 5.09V5.39625C21.7341 5.6675 21.5705 5.83 21.2977 5.83H19.552C19.425 5.83 19.3158 5.92 19.3158 6.04625V11.7319C19.3158 12.1287 19.4433 12.3094 19.8065 12.4175L20.1703 12.5256C20.4248 12.5981 20.5524 12.7244 20.5524 12.9769V13.1031C20.5524 13.3744 20.3894 13.5363 20.1166 13.5363ZM34.3668 11.8237C33.9499 12.7775 32.7901 13.75 30.796 13.75C28.2574 13.75 26.3719 11.9325 26.3719 9.14312C26.3719 6.335 28.1847 4.535 30.5231 4.535C32.3201 4.535 33.7142 5.52563 34.1128 7.3075C34.1849 7.64938 34.0591 7.81125 33.7869 7.90125L28.4026 9.88062C28.348 9.90115 28.3035 9.94293 28.2787 9.99687C28.2668 10.0232 28.2603 10.0518 28.2597 10.0809C28.259 10.1099 28.2643 10.1388 28.2751 10.1656C28.692 11.4075 29.7076 12.2531 31.1756 12.2531C32.3183 12.2531 33.1167 11.8256 33.5684 11.2819C33.8046 11.03 34.0591 10.9256 34.2947 11.0831C34.5114 11.2119 34.5303 11.4456 34.3668 11.8237ZM27.9314 8.47625C27.9302 8.5475 27.9363 8.61938 27.9491 8.69C27.9674 8.7975 28.0395 8.8525 28.1847 8.78L32.101 7.305C32.264 7.25062 32.3726 7.17812 32.3 6.96187C32.01 6.11875 31.2849 5.7075 30.4688 5.7075C29.0368 5.7075 27.9314 6.76688 27.9314 8.47625ZM35.0742 9.14188C35.0742 6.38812 36.7784 4.5525 39.1894 4.5525C39.7693 4.5525 40.1142 4.715 40.514 4.715C40.948 4.715 41.1116 4.5525 41.3295 4.5525C41.5651 4.5525 41.6554 4.66062 41.7641 4.87625L42.6522 6.82C42.7791 7.105 42.6888 7.32438 42.4892 7.41375L42.4172 7.44937C42.2017 7.57562 41.9862 7.52125 41.8007 7.30688C40.821 6.17188 40.1679 5.65063 39.1894 5.65063C37.8478 5.65063 36.6514 6.71187 36.6514 8.58375C36.6514 10.7244 37.9387 12.255 39.9506 12.255C40.9303 12.255 41.5285 12.0031 41.9814 11.5531C42.2689 11.2831 42.4709 11.2294 42.6888 11.3556C42.8878 11.4806 42.997 11.6794 42.7437 12.1294C42.2353 13.1012 41.0188 13.7487 39.5709 13.7487C36.8144 13.7487 35.0742 11.9131 35.0742 9.14188ZM44.465 11.9137V6.1C44.466 6.07151 44.4611 6.04314 44.4505 6.01674C44.44 5.99035 44.4242 5.96654 44.404 5.94688C44.3836 5.92656 44.3594 5.91071 44.3329 5.90029C44.3063 5.88986 44.278 5.88509 44.2496 5.88625H43.5965C43.3254 5.88625 43.1619 5.72375 43.1619 5.49V5.3625C43.1619 5.14875 43.2339 5.00625 43.4695 4.84062C44.086 4.39062 44.5578 3.83313 45.084 3.095C45.2469 2.84313 45.4282 2.75313 45.6272 2.75313C45.8995 2.75313 46.0807 2.9325 46.0807 3.22125V4.49875C46.0797 4.52725 46.0846 4.55565 46.0951 4.58205C46.1057 4.60846 46.1216 4.63226 46.1418 4.65188C46.1621 4.67219 46.1863 4.68804 46.2129 4.69846C46.2394 4.70889 46.2678 4.71366 46.2962 4.7125H47.9821C48.2543 4.7125 48.4173 4.875 48.4173 5.14062V5.44688C48.4173 5.71688 48.2543 5.87875 47.9821 5.87875H46.2236C46.1952 5.87803 46.1669 5.88306 46.1404 5.89358C46.1139 5.90409 46.0897 5.91987 46.0691 5.94C46.0492 5.95985 46.0335 5.9837 46.023 6.01005C46.0125 6.03639 46.0074 6.06467 46.0081 6.09312V11.6362C46.0081 12.2125 46.2803 12.4819 46.8425 12.4819C47.7666 12.4819 47.8576 12.0544 48.2745 12.0544C48.321 12.0533 48.3673 12.0619 48.4105 12.0796C48.4537 12.0974 48.493 12.1238 48.526 12.1575C48.5576 12.1909 48.5822 12.2306 48.5982 12.2741C48.6141 12.3177 48.6211 12.3642 48.6187 12.4106C48.6187 13.0769 47.8576 13.7425 46.5159 13.7425C45.1182 13.7488 44.465 13.0469 44.465 11.9137ZM49.9408 13.5687C49.6692 13.5687 49.5062 13.4075 49.5062 13.1375V13.0113C49.5062 12.7594 49.6338 12.6331 49.8871 12.5612L50.2466 12.4538C50.6092 12.345 50.7362 12.1681 50.7362 11.7694V7.14437C50.7362 6.60437 50.5921 6.38812 49.9024 6.22625C49.6149 6.155 49.5032 6.04688 49.5032 5.79437V5.68625C49.5032 5.48875 49.6118 5.345 49.8841 5.25813L51.57 4.59188C52.0235 4.43 52.2951 4.59188 52.2951 5.04188V11.7706C52.2951 12.1669 52.4227 12.3469 52.7846 12.455L53.1442 12.5625C53.3975 12.6337 53.5244 12.7612 53.5244 13.0125V13.1388C53.5244 13.4087 53.3609 13.5706 53.0929 13.5706L49.9408 13.5694V13.5687ZM50.1038 1.88875C50.1038 1.25938 50.6123 0.773125 51.3191 0.773125C52.0265 0.773125 52.5338 1.25938 52.5338 1.88875C52.5338 2.51875 52.0253 3.005 51.3179 3.005C50.611 3.005 50.1038 2.50125 50.1038 1.88875ZM53.5116 9.14188C53.5116 6.40562 55.3977 4.53375 57.8631 4.53375C60.3284 4.53375 62.2133 6.40562 62.2133 9.14188C62.2133 11.8775 60.3284 13.7487 57.8631 13.7487C55.3971 13.7487 53.5116 11.8769 53.5116 9.14188ZM60.6367 9.55562C60.6367 7.55812 59.5667 5.84562 57.5909 5.84562C56.1406 5.84562 55.0889 6.88938 55.0889 8.7075C55.0889 10.7231 56.1766 12.4325 58.1347 12.4325C59.585 12.435 60.6373 11.3912 60.6373 9.55875L60.6367 9.55562ZM62.8121 13.5694C62.5399 13.5694 62.3763 13.4075 62.3763 13.1369V13.0119C62.3763 12.76 62.5039 12.6338 62.7572 12.5619L63.1167 12.4538C63.4762 12.345 63.6069 12.1681 63.6069 11.7694V7.10813C63.6069 6.56813 63.4628 6.35188 62.7724 6.19C62.485 6.11875 62.3739 6.01062 62.3739 5.76188V5.65063C62.3739 5.4525 62.4819 5.30813 62.7547 5.21875L64.368 4.58875C64.8032 4.42625 65.0748 4.58875 65.0748 5.03875V5.43437C65.0748 5.61437 65.2189 5.66875 65.3623 5.5775L65.6498 5.415C66.5202 4.87562 67.4999 4.53312 68.4784 4.53312C69.9653 4.53312 70.7631 5.45125 70.7631 7.0525V11.7712C70.7631 12.1669 70.8894 12.3462 71.2703 12.455L71.6146 12.5625C71.8685 12.6344 71.9954 12.7612 71.9954 13.0125V13.1388C71.9954 13.4087 71.8325 13.5706 71.5645 13.5706H69.632C69.3604 13.5706 69.1974 13.4087 69.1974 13.1388V7.41375C69.1974 6.35188 68.9246 5.8125 68.0004 5.8125C67.0763 5.8125 66.1149 6.16937 65.5888 6.49625C65.2628 6.67688 65.1719 6.8525 65.1719 7.19812V11.7712C65.1719 12.1669 65.2995 12.3462 65.6614 12.455L66.0209 12.5625C66.2743 12.6344 66.4018 12.7612 66.4018 13.0125V13.1388C66.4018 13.4087 66.2382 13.5706 65.966 13.5706L62.8121 13.5694ZM92.3458 13.5612H88.7641C88.4912 13.5612 88.3276 13.3987 88.3276 13.1281V12.9838C88.3276 12.7131 88.4552 12.5862 88.6908 12.4963L89.2188 12.3156C89.5826 12.1719 89.7095 12.0094 89.7095 11.63V2.85812C89.7095 2.47937 89.5826 2.31687 89.2188 2.1725L88.6908 1.99188C88.4552 1.90188 88.3276 1.77562 88.3276 1.50437V1.36063C88.3276 1.08938 88.4912 0.926875 88.7641 0.926875H92.3458C92.6187 0.926875 92.7823 1.08938 92.7823 1.36V1.50437C92.7823 1.77562 92.6553 1.90188 92.4191 1.99188L91.8917 2.1725C91.5096 2.31687 91.382 2.47875 91.382 2.85812V11.63C91.382 12.0087 91.5096 12.1713 91.8917 12.3156L92.4191 12.4969C92.6553 12.5863 92.7823 12.7131 92.7823 12.9838V13.1275C92.7823 13.3987 92.6187 13.5612 92.3458 13.5612ZM79.1974 13.5612H75.9788C75.6883 13.5612 75.5247 13.3987 75.5247 13.1281V13.0019C75.5247 12.7669 75.6157 12.6588 75.8519 12.5688L76.2517 12.4062C76.743 12.2075 76.997 11.9369 77.1795 11.5037L80.3791 3.165C80.561 2.69625 80.3974 2.425 79.9793 2.2625L79.3604 2.04625C78.9795 1.90187 78.8886 1.72125 78.9606 1.45063L78.9972 1.30625C79.0705 1.05375 79.2157 0.926875 79.5063 0.926875H81.6158C81.888 0.926875 82.0882 1.05375 82.1792 1.30625L86.1791 11.305C86.4336 11.9362 86.6704 12.1713 87.1068 12.37L87.4883 12.5325C87.7246 12.6406 87.8155 12.785 87.8155 12.9838V13.1275C87.8155 13.3987 87.6519 13.5612 87.3791 13.5612H83.9609C83.6704 13.5612 83.5062 13.3987 83.5062 13.1281V12.9838C83.5062 12.785 83.5971 12.6406 83.8339 12.5688L84.1794 12.4419C84.6336 12.2794 84.6879 12.1169 84.5426 11.7206L83.9426 10.1144C83.906 10.0056 83.8156 9.95188 83.6881 9.95188H79.2884C79.1608 9.95188 79.0705 10.0056 79.0338 10.1319L78.5065 11.5581C78.3429 12.0087 78.4698 12.2619 78.9795 12.4781L79.3061 12.6044C79.5429 12.6769 79.6339 12.8212 79.6339 13.0019V13.1281C79.6339 13.3987 79.4703 13.5612 79.1974 13.5612ZM79.7614 8.85063H83.179C83.3432 8.85063 83.4152 8.76 83.3609 8.5975L81.5975 3.9775C81.5248 3.79688 81.3796 3.79688 81.3063 3.9775L79.5795 8.5975C79.5246 8.76 79.6155 8.85063 79.7614 8.85063Z" fill="black"/>
</svg>
