<svg width="84" height="24" viewBox="0 0 84 24" fill="none" xmlns="http://www.w3.org/2000/svg">
<g clip-path="url(#clip0_14_33)">
<mask id="mask0_14_33" style="mask-type:luminance" maskUnits="userSpaceOnUse" x="0" y="0" width="84" height="24">
<path d="M83.4783 0H0V24H83.4783V0Z" fill="white"/>
</mask>
<g mask="url(#mask0_14_33)">
<path d="M34.4444 11.7778C34.4444 8.58883 36.4931 6.36328 39.3344 6.36328C42.1758 6.36328 44.2245 8.58883 44.2245 11.7778C44.2245 14.9668 42.1758 17.1923 39.3344 17.1923C36.4931 17.1923 34.4444 14.9668 34.4444 11.7778ZM42.3465 11.7778C42.3465 9.49734 41.1027 8.01568 39.3344 8.01568C37.5662 8.01568 36.3223 9.49125 36.3223 11.7778C36.3223 14.0643 37.5662 15.5399 39.3344 15.5399C41.1027 15.5399 42.3465 14.0643 42.3465 11.7778ZM49.4928 17.1923C48.4989 17.1923 47.7672 16.796 47.2856 16.2289V19.6679H45.5294V9.35101H47.2856V10.1681C47.7672 9.59491 48.4989 9.20467 49.4928 9.20467C51.6452 9.20467 52.8707 11.0217 52.8707 13.1985C52.8707 15.3752 51.639 17.1923 49.4928 17.1923ZM47.2367 12.9789V13.4301C47.2367 14.8508 48.0537 15.6557 49.139 15.6557C50.4134 15.6557 51.1024 14.6619 51.1024 13.1985C51.1024 11.7351 50.4134 10.7412 49.139 10.7412C48.0537 10.7412 47.2367 11.5338 47.2367 12.9789ZM57.6206 17.1923C55.4255 17.1923 53.889 15.5704 53.889 13.1985C53.889 10.8266 55.4133 9.20467 57.5473 9.20467C59.6815 9.20467 60.9559 10.8875 60.9559 12.9972V13.5826H55.5719C55.706 14.8997 56.4926 15.7045 57.6206 15.7045C58.4864 15.7045 59.1693 15.2656 59.407 14.4728L60.9132 15.046C60.3705 16.3936 59.1572 17.1983 57.6206 17.1983V17.1923ZM57.5352 10.6803C56.6267 10.6803 55.9255 11.2229 55.6632 12.2595H59.1876C59.1755 11.412 58.6449 10.6803 57.5352 10.6803ZM62.2789 17.0338V9.35101H64.0352V10.1681C64.4741 9.65587 65.1631 9.20467 66.1569 9.20467C67.7667 9.20467 68.73 10.3144 68.73 11.9729V17.0338H66.9741V12.4851C66.9741 11.5338 66.596 10.8448 65.6265 10.8448C64.8337 10.8448 64.029 11.4302 64.029 12.5277V17.0338H62.2728H62.2789ZM73.8762 6.52791H75.9981L79.9797 17.0338H78.0896L77.181 14.6314H72.6446L71.7543 17.0338H69.8946L73.8762 6.52791ZM74.9006 8.60712L73.2603 12.9972H76.5653L74.8946 8.60712H74.9006ZM82.9918 6.52791V17.0338H81.12V6.52791H82.9918Z" fill="#1E1E1E"/>
<path d="M21.1526 9.9169C21.4107 9.14238 21.4968 8.32482 21.4179 7.51444C21.339 6.70405 21.0737 5.92236 20.6649 5.21955C20.0553 4.15816 19.1231 3.31909 18.0044 2.81709C16.8855 2.31508 15.6377 2.18599 14.4401 2.44417C13.9022 1.83457 13.2352 1.34692 12.4894 1.01702C11.7435 0.687132 10.9404 0.515016 10.1228 0.522188C8.89644 0.522188 7.70595 0.902279 6.70911 1.62661C5.71943 2.34376 4.98077 3.36211 4.60068 4.52391C3.80463 4.68885 3.05162 5.01874 2.39184 5.49924C1.73207 5.97973 1.17985 6.5893 0.778242 7.2993C0.16149 8.36068 -0.0966815 9.58701 0.0324063 10.8062C0.161495 12.0254 0.670668 13.1728 1.4954 14.0835C1.23722 14.8581 1.15116 15.6757 1.23005 16.486C1.31611 17.2964 1.57428 18.0781 1.98308 18.781C2.59265 19.8422 3.52494 20.6813 4.6437 21.1834C5.76246 21.6854 7.01031 21.8144 8.20796 21.5563C8.74583 22.1659 9.41277 22.6535 10.1586 22.9835C10.9045 23.3134 11.7076 23.4854 12.5252 23.4782C13.7516 23.4782 14.9492 23.0981 15.9389 22.3739C16.9286 21.6566 17.6673 20.6383 18.0473 19.4693C18.8433 19.3045 19.5963 18.9745 20.2562 18.494C20.9159 18.0136 21.461 17.404 21.8697 16.694C22.4865 15.6326 22.7447 14.4063 22.6157 13.1871C22.4865 11.968 21.9773 10.8205 21.1526 9.9169ZM12.5755 21.9722C11.4352 21.9722 10.5459 21.6209 9.77853 20.9753C9.81438 20.9539 9.87176 20.9252 9.91479 20.8966L14.4831 18.2575C14.5979 18.1928 14.691 18.0997 14.7556 17.9849C14.8201 17.8702 14.856 17.741 14.856 17.6119V11.1719L16.7852 12.2906C16.7852 12.2906 16.8068 12.305 16.8138 12.3122C16.8138 12.3193 16.821 12.3337 16.8282 12.3409V17.6765C16.8282 20.0933 14.8129 21.9794 12.5755 21.9794V21.9722ZM3.28829 18.0278C2.78628 17.1601 2.59982 16.1345 2.77911 15.145C2.81496 15.1664 2.87234 15.2023 2.91537 15.2239L7.48364 17.863C7.59839 17.9275 7.72748 17.9633 7.85655 17.9633C7.98564 17.9633 8.11473 17.9275 8.22947 17.863L13.809 14.643V16.8733C13.809 16.8733 13.809 16.8947 13.809 16.9091C13.809 16.9163 13.7946 16.9307 13.7874 16.9379L9.16895 19.6057C8.17928 20.1722 7.01031 20.33 5.90591 20.0359C4.80149 19.7419 3.86201 19.0177 3.29546 18.035L3.28829 18.0278ZM2.08347 8.05231C2.58548 7.17738 3.38151 6.51042 4.32098 6.16618V11.6023C4.32098 11.7313 4.35684 11.8604 4.42139 11.9751C4.48593 12.0899 4.57916 12.1832 4.69391 12.2476L10.2734 15.4678L8.34422 16.5865C8.34422 16.5865 8.32271 16.5937 8.31554 16.6009C8.3012 16.6009 8.29401 16.6009 8.27967 16.6009L3.6612 13.933C2.67153 13.3593 1.95438 12.4198 1.66035 11.3225C1.36632 10.2181 1.51692 9.04914 2.08347 8.05948V8.05231ZM17.9541 11.7456L12.3746 8.52562L14.3038 7.41403C14.3038 7.41403 14.3253 7.40686 14.3325 7.39969H14.3683L18.9869 10.0675C19.6968 10.4762 20.2706 11.0787 20.6505 11.803C21.0308 12.5273 21.1884 13.3449 21.1239 14.1553C21.0522 14.9728 20.751 15.7474 20.2562 16.3927C19.7613 17.0455 19.0944 17.5403 18.327 17.8199V12.3839C18.327 12.2548 18.2912 12.1258 18.2267 12.011C18.162 11.8962 18.0689 11.803 17.9541 11.7384V11.7456ZM19.8761 8.84835C19.8761 8.84835 19.7828 8.79097 19.7399 8.76946L15.1716 6.13033C15.0567 6.06579 14.9277 6.02994 14.7986 6.02994C14.6695 6.02994 14.5333 6.06579 14.4257 6.13033L8.84622 9.35035V7.12C8.84622 7.12 8.84622 7.09849 8.84622 7.08415C8.84622 7.07698 8.86058 7.06263 8.86775 7.05546L13.4862 4.38765C14.1962 3.97887 14.9994 3.77806 15.8169 3.81393C16.6346 3.84978 17.4234 4.11513 18.0903 4.58128C18.7572 5.04742 19.2807 5.70004 19.5963 6.45306C19.9119 7.20606 20.0052 8.03796 19.8689 8.84118L19.8761 8.84835ZM7.79202 12.8286L5.86287 11.7098C5.86287 11.7098 5.84135 11.6954 5.83418 11.6882C5.83418 11.6811 5.82701 11.6667 5.81985 11.6595V6.32397C5.81985 5.50641 6.05649 4.71037 6.49397 4.01473C6.93143 3.32626 7.55535 2.77405 8.3012 2.42982C9.03986 2.08558 9.86459 1.95649 10.675 2.0569C11.4854 2.16447 12.2527 2.49436 12.8766 3.01788C12.8407 3.0394 12.7835 3.06808 12.7404 3.09676L8.17211 5.73591C8.05737 5.80044 7.96413 5.89368 7.89959 6.00841C7.83504 6.12316 7.79919 6.25225 7.79919 6.38133V12.8214L7.79202 12.8286ZM8.83905 10.5695L11.3204 9.13521L13.8018 10.5695V13.4382L11.3204 14.8724L8.83905 13.4382V10.5695Z" fill="#1E1E1E"/>
</g>
</g>
<defs>
<clipPath id="clip0_14_33">
<rect width="84" height="24" fill="white"/>
</clipPath>
</defs>
</svg>
