<svg width="104" height="25" viewBox="0 0 104 25" fill="none" xmlns="http://www.w3.org/2000/svg">
<path fill-rule="evenodd" clip-rule="evenodd" d="M17.9288 0.977539V8.25641H20.5909V18.6142H17.713V25.0002L10.8131 18.8004V24.9512H9.7434V18.7933L2.83566 25.0002V18.5291H0V8.17233H2.82781V0.977539L9.7434 7.47767V1.16772H10.8122V7.66385L17.9288 0.977539ZM10.8131 10.0301V17.356L16.6433 22.5949V15.4312L10.8131 10.0301ZM9.73555 9.95L3.9054 15.3531V22.5949L9.73555 17.356V9.95101V9.95ZM17.713 17.5372H19.5211V9.33442H11.727L17.713 14.8797V17.5372ZM8.90604 9.24934H1.06876V17.4521H2.83369V14.8737L8.90505 9.24834L8.90604 9.24934ZM3.89755 3.45588V8.17033H8.9129L3.89755 3.45588ZM16.859 3.45588L11.8437 8.17033H16.859V3.45588Z" fill="black"/>
<path fill-rule="evenodd" clip-rule="evenodd" d="M51.4338 9.051H52.2251V10.641H51.2007C50.3984 10.641 49.8009 10.8294 49.4049 11.2061C49.0096 11.5835 48.8116 12.2016 48.8116 13.0616V18.2721H47.1953V9.08653H48.8116V10.5525C48.8116 10.635 48.8542 10.6766 48.9381 10.6766C48.9855 10.6766 49.0213 10.6652 49.0461 10.641C49.0795 10.5991 49.1039 10.551 49.1176 10.4996C49.429 9.53431 50.2018 9.05167 51.4352 9.05167L51.4338 9.051ZM61.9941 11.0204C62.4183 11.7565 62.6321 12.6426 62.6321 13.679C62.6321 14.7146 62.4196 15.6008 61.9941 16.3368C61.5678 17.0728 61.0178 17.6238 60.3413 17.9885C59.6744 18.3513 58.9227 18.54 58.1591 18.5362C56.6259 18.5362 55.5486 17.9355 54.9257 16.7343C54.8783 16.6405 54.8178 16.5929 54.7456 16.5929C54.6734 16.5929 54.6376 16.6277 54.6376 16.6988V21.6271H53.0213V9.08653H54.6376V10.6585C54.6376 10.7295 54.6734 10.765 54.7456 10.765C54.8178 10.765 54.8769 10.7181 54.9257 10.6236C55.5486 9.42169 56.6259 8.82108 58.1591 8.82108C58.9374 8.82108 59.6648 9.00341 60.3413 9.36874C61.0178 9.73407 61.5685 10.2844 61.9941 11.0204ZM61.015 13.679C61.015 12.595 60.7194 11.7504 60.1268 11.1444C59.5341 10.5385 58.7531 10.2348 57.7823 10.2348C56.8109 10.2348 56.0305 10.5385 55.4379 11.1444C54.8446 11.7511 54.6273 12.5964 54.6273 13.6783C54.6273 14.7615 54.8446 15.6075 55.4372 16.2135C56.0305 16.8201 56.8122 17.1224 57.7816 17.1224C58.7517 17.1224 59.5341 16.8188 60.1268 16.2135C60.7194 15.6075 61.015 14.7615 61.015 13.679ZM35.2826 11.0345C35.7075 11.7705 35.9207 12.6567 35.9207 13.6924C35.9207 14.7287 35.7089 15.6149 35.2826 16.3509C34.8571 17.0869 34.3064 17.6373 33.6305 18.0026C32.9635 18.3654 32.2115 18.5541 31.4477 18.5502C29.9145 18.5502 28.8372 17.9496 28.215 16.7484C28.1668 16.6545 28.1063 16.6063 28.0348 16.6063C27.9626 16.6063 27.9262 16.6418 27.9262 16.7129V21.6411H26.3105V9.10061H27.9269V10.6725C27.9269 10.7436 27.9633 10.7791 28.0355 10.7791C28.107 10.7791 28.1661 10.7322 28.215 10.637C28.8379 9.43577 29.9152 8.83516 31.4484 8.83516C32.2266 8.83516 32.954 9.01749 33.6312 9.38281C34.3071 9.74814 34.8571 10.2985 35.2826 11.0345ZM34.3043 13.6924C34.3043 12.6091 34.0087 11.7638 33.4153 11.1585C32.8227 10.5525 32.0417 10.2489 31.0709 10.2489C30.1001 10.2489 29.3191 10.5525 28.7265 11.1585C28.1338 11.7652 27.9166 12.6098 27.9166 13.6924C27.9166 14.7749 28.1338 15.6216 28.7265 16.2269C29.3191 16.8342 30.1001 17.1365 31.0709 17.1365C32.0417 17.1365 32.8227 16.8329 33.4153 16.2269C34.0087 15.6216 34.3043 14.7743 34.3043 13.6924ZM44.2197 15.3555H45.9261C45.6992 16.2155 45.2345 16.9609 44.5352 17.5903C43.834 18.2204 42.8309 18.5355 41.5253 18.5355C40.5428 18.5355 39.6786 18.3377 38.9299 17.9429C38.1937 17.5604 37.5905 16.9734 37.1967 16.2564C36.789 15.5264 36.5855 14.6664 36.5855 13.6776C36.5855 12.6882 36.7835 11.8288 37.1788 11.0989C37.5734 10.3689 38.1276 9.80646 38.8405 9.41164C39.5528 9.01749 40.3875 8.81974 41.3459 8.81974C42.3036 8.81974 43.097 9.01413 43.7618 9.40292C44.4273 9.79172 44.9237 10.3072 45.2523 10.948C45.5823 11.5909 45.7467 12.2941 45.7467 13.0596V14.1187H38.2919C38.351 15.037 38.6659 15.7677 39.2338 16.3093C39.8031 16.8503 40.5669 17.1224 41.5246 17.1224C42.3029 17.1224 42.8996 16.9669 43.3122 16.6545C43.7254 16.3422 44.0272 15.9098 44.2197 15.3555ZM38.3105 12.7948H43.9509C43.9509 11.9944 43.7412 11.367 43.3225 10.9132C42.9031 10.46 42.2444 10.2328 41.3465 10.2328C40.5078 10.2328 39.8223 10.454 39.2909 10.8951C38.758 11.3368 38.4315 11.9703 38.3118 12.7935L38.3105 12.7948ZM63.9122 18.2714H65.5293V5.55322H63.9109V18.2721V18.2707L63.9122 18.2714ZM86.3418 8.08305H88.2304V6.09619H86.3418V8.08439V8.08305ZM93.0025 16.9019C92.7096 16.9307 92.5322 16.9461 92.4731 16.9461C92.4368 16.9481 92.4004 16.9428 92.3662 16.9305C92.3321 16.9183 92.3008 16.8995 92.2744 16.8751C92.2497 16.849 92.2307 16.8184 92.2184 16.785C92.2061 16.7516 92.2008 16.7161 92.2029 16.6807C92.2029 16.6224 92.218 16.4474 92.2476 16.1592C92.2771 15.8709 92.293 15.4258 92.293 14.8266V10.4326H94.5989L94.1451 9.08653H92.2943V6.61301H90.6773V9.08519H88.9193V10.4312H90.6773V15.267C90.6773 16.2805 90.9296 17.034 91.4322 17.5287C91.9354 18.0227 92.7013 18.2707 93.7319 18.2707H94.9901V16.8583H94.361C93.7498 16.8583 93.2974 16.8731 93.0038 16.9026L93.0025 16.9019ZM102.462 9.08452L99.7855 16.792C99.7491 16.8865 99.6927 17.0105 99.5091 17.0105C99.3249 17.0105 99.2685 16.8865 99.2328 16.792L96.5562 9.08452H94.9076L98.0069 18.27H99.1028C99.1573 18.2681 99.2117 18.274 99.2644 18.2875C99.3008 18.2989 99.3304 18.3277 99.3544 18.3766C99.4026 18.447 99.3957 18.5536 99.3366 18.6937L98.834 20.0357C98.7618 20.2127 98.6243 20.3011 98.4215 20.3011C98.3486 20.3011 98.1815 20.2857 97.9182 20.2569C97.5778 20.224 97.2359 20.2093 96.8938 20.2127H95.5827V21.625H97.307C98.3129 21.625 98.9186 21.4575 99.4397 21.1223C99.9601 20.7871 100.364 20.1952 100.652 19.3459L104 9.43778V9.08519L102.462 9.08452ZM81.0617 12.5119L78.5295 9.08586H76.7502V9.43912L79.7856 13.4142L76.0854 17.9188V18.2714H77.9005L80.8465 14.5799L83.5952 18.2714H85.338V17.9188L82.1225 13.6796L85.6082 9.45789V9.0872H83.7932L81.063 12.5146L81.0617 12.5133V12.5119ZM86.5144 18.27H88.1307V9.08653H86.5151V18.2714L86.5144 18.27ZM76.159 15.3548C75.9314 16.2148 75.4673 16.9602 74.7675 17.5897C74.0662 18.2198 73.0631 18.5348 71.7582 18.5348C70.775 18.5348 69.9115 18.3371 69.1628 17.9423C68.4263 17.5598 67.8229 16.9728 67.4289 16.2557C67.0212 15.5257 66.8184 14.6657 66.8184 13.6769C66.8184 12.6875 67.0164 11.8282 67.411 11.0982C67.8056 10.3682 68.3598 9.80579 69.0727 9.41097C69.785 9.01681 70.6197 8.81907 71.5781 8.81907C72.5365 8.81907 73.3292 9.01346 73.9947 9.40225C74.6595 9.79105 75.1559 10.3065 75.4852 10.9474C75.8145 11.5902 75.9789 12.2934 75.9789 13.0589V14.118H68.5248C68.5839 15.0364 68.8988 15.767 69.4674 16.3087C70.036 16.8496 70.7998 17.1218 71.7582 17.1218C72.5365 17.1218 73.1332 16.9663 73.5457 16.6539C73.9582 16.3415 74.2607 15.9091 74.4526 15.3548H76.159ZM68.5427 12.7941H74.1837C74.1837 11.9937 73.9741 11.3663 73.5547 10.9125C73.1353 10.4594 72.4766 10.2321 71.5794 10.2321C70.7407 10.2321 70.0552 10.4533 69.5231 10.8944C68.9902 11.3362 68.6637 11.9696 68.544 12.7928L68.5427 12.7941Z" fill="black"/>
</svg>
